REM MD5 d78388b3030f1efa0401a88f12c5bd5a
FILE "D (Europe) (Disc 1).bin" BINARY
  TRACK 01 MODE2/2352
    INDEX 01 00:00:00
  TRACK 02 AUDIO
    INDEX 00 59:51:16
    INDEX 01 59:53:16
  TRACK 03 AUDIO
    INDEX 00 63:03:16
    INDEX 01 63:05:16
REM LEADOUT 66:05:41
